<svg version="1.2" xmlns="http://www.w3.org/2000/svg" viewBox="0 0 2976 378" width="2976" height="378">
	<style>
		.s0 { fill: #2095f3 } 
		.s1 { fill: #0c46a0 } 
		.s2 { fill: #2095f2 } 
		.s3 { fill: #3e50b4 } 
		.s4 { fill: #1184e9 } 
	</style>
	<path class="s0" d="m86.32 56.86q1.6-0.01 3.26-0.02 1.76 0 3.57 0 1.86-0.01 3.77-0.02 5.12-0.01 10.24-0.02 3.21 0 6.42-0.01 10.06-0.02 20.13-0.03 11.56-0.01 23.13-0.05 8.97-0.03 17.94-0.03 5.34 0 10.68-0.03c30.77-0.14 54.26 4.34 77.54 26.35 18.17 19.54 24.65 41.31 24.09 67.44-0.46 12.8-2.89 25.41-11.11 35.52-1.27 2.08-1.27 2.08-0.26 4.6q1.5 2.83 3.16 5.56c9.83 16.96 11.28 40.93 6.43 59.69q-1.08 3.62-2.31 7.19-0.52 1.57-1.06 3.18c-8.16 21.82-27.48 40.65-48.38 50.43-11 4.41-21.13 5.69-32.93 5.66-1.95 0.01-1.95 0.01-3.94 0.02q-5.32 0.02-10.64 0.01-4.45 0-8.9 0.01-10.52 0.02-21.03 0.01-10.82-0.01-21.63 0.02-9.32 0.03-18.64 0.02-5.55 0-11.1 0.02-6.19 0.02-12.38-0.01-1.81 0.01-3.67 0.03c-10.03-0.07-19.87-1.64-27.7-8.4-8.98-10.28-10.16-23.22-10.13-36.32q-0.01-1.18-0.01-2.39-0.01-3.91-0.01-7.82 0-2.82-0.01-5.65-0.01-7.64-0.01-15.28 0-4.78 0-9.56-0.02-16.7-0.02-33.4 0-15.54-0.02-31.07-0.02-13.36-0.02-26.73 0-7.97-0.01-15.94-0.02-7.5 0-15 0-2.74-0.01-5.48c-0.1-30.99-0.1-30.99 9.81-43.3 6.56-6.29 16.84-9.17 25.76-9.2zm42.68 77.14c0 36.96 0 73.92 0 112 11.57 0.06 23.14 0.12 35.06 0.19 3.65 0.02 7.29 0.05 11.04 0.08 3.29 0.01 3.29 0.01 6.58 0.02q2.18 0 4.36 0.03 3.33 0.03 6.65 0.02c1.87 0.01 1.87 0.01 3.77 0.02 4.21-0.43 6.8-1.39 10.54-3.36 2.5-3.75 2.54-5.56 2-10-2.58-3.29-4.11-4.81-8.24-5.69q-1.79-0.05-3.64-0.1c-0.99-0.04-0.99-0.04-1.99-0.08q-3.13-0.12-6.25-0.19c-12.42-0.34-23.82-1.01-33.23-10.02-8.25-9.59-9.24-23.39-8.4-35.5 1.44-11 4.71-17.53 13.38-24.55 10.39-5.77 21.67-5.32 33.25-5.4q1.86-0.03 3.77-0.06 1.68-0.01 3.41-0.03c3.26-0.42 4.63-1.07 6.94-3.38 1.2-3.59 1.33-6.23 1-10-1.49-2.34-1.49-2.34-4-4-2.62-0.37-4.82-0.51-7.43-0.45q-1.13 0-2.28-0.01-3.66 0.02-7.31 0.07-2.25 0.01-4.51 0.01-8.36 0.04-16.72 0.13c-12.46 0.08-24.91 0.16-37.75 0.25z"/>
	<path class="s0" d="m864.21 56.61q1.73-0.01 3.51-0.01 5.68-0.02 11.37 0 3.99 0 7.99-0.01 8.37 0 16.74 0.02 9.58 0.02 19.17-0.01 8.3-0.02 16.61 0 4.92 0 9.85-0.01c36.28-0.08 74.41 4.05 102.55 29.41q1.19 1.05 2.43 2.13c21.27 19.91 29.95 47.8 33.57 75.87q0.14 0.99 0.29 2.01c0.99 7.51 0.95 15.06 0.96 22.61q0 1.09 0 2.21c-0.05 35.42-7.21 70.01-31.25 97.17-0.9 1.05-0.9 1.05-1.82 2.11-14.86 16.08-36.35 24.23-57.18 28.89-1.52 0.35-1.52 0.35-3.07 0.71-9.87 2.13-19.72 2.44-29.78 2.44q-1.86 0-3.78 0.01-5.08 0.01-10.17 0.01-3.18 0-6.37 0-11.13 0.02-22.26 0.02-10.35 0-20.69 0.02-8.91 0.02-17.83 0.02-5.31 0-10.62 0.01-5.92 0.02-11.84 0-1.73 0.01-3.52 0.02c-9.73-0.04-19.61-1.15-27.02-8.09-11.18-12.31-10.35-26.27-10.32-41.95q-0.01-3-0.02-6.01-0.02-8.13-0.01-16.26 0-6.8-0.01-13.6-0.02-16.04-0.01-32.09 0.01-16.52-0.02-33.05-0.03-14.21-0.02-28.43 0-8.48-0.02-16.96-0.02-7.97 0-15.95 0.01-2.91 0-5.83c-0.06-14.02 0.1-28.21 10.38-39.04 9.19-7.5 20.77-8.45 32.21-8.39zm35.79 77.39c0 36.96 0 73.92 0 112 49.78 4.22 49.78 4.22 97-13.81 11.86-12.7 14.36-29.64 14.22-46.36-0.86-15.11-4.68-29.34-16.22-39.83-13.02-11.22-27.95-12.32-44.51-12.2-1.93 0.01-1.93 0.01-3.9 0.01q-7.14 0.02-14.28 0.06c-15.99 0.07-15.99 0.07-32.31 0.13z"/>
	<path class="s0" d="m643.25 64.06c9.38 7.22 16.39 16.87 23.46 26.24 2.21 2.91 4.47 5.77 6.73 8.64 0.68 0.87 0.68 0.87 1.38 1.76q1.4 1.77 2.79 3.53 3.45 4.38 6.89 8.77 1.37 1.75 2.75 3.5 2.75 3.5 5.5 7 0.68 0.86 1.37 1.75 1.38 1.75 2.76 3.51 3.38 4.3 6.76 8.6 7.86 9.99 15.67 20.02 0.86 1.09 1.74 2.23 0.83 1.06 1.69 2.16 0.72 0.93 1.47 1.89 3.92 5.15 7.79 10.34 0.01-1.61 0.02-3.26 0.08-15.27 0.22-30.54 0.06-7.85 0.11-15.7 0.04-7.58 0.11-15.17 0.03-2.88 0.04-5.76c0.1-28.14 0.1-28.14 9.5-38.57 7.72-6.89 18.76-8.59 28.79-8.29 11.77 1.05 23.64 3.14 32.09 11.98 7.54 9.86 7.76 19.99 7.86 31.92q0.04 2.6 0.09 5.2 0.12 8.1 0.17 16.19 0.02 2.51 0.05 5.01 0.13 16.25 0.12 32.51 0 4.06 0 8.12 0.02 14.24 0.02 28.48 0 13.17 0.02 26.35 0.02 11.44 0.02 22.88 0 6.78 0.01 13.57 0.02 6.33 0 12.67 0 2.31 0.01 4.62c0.1 25.72 0.1 25.72-8.16 34.92-11.57 11.08-25.19 11.44-40.42 11.2-11.87-0.47-19.76-5.78-27.67-14.33-4.51-5.19-8.78-10.57-13-16-0.68-0.88-0.68-0.88-1.38-1.77q-3.1-4-6.17-8.03c-6.52-8.54-13.22-16.94-20.01-25.26q-7.14-8.76-13.99-17.74-3.88-5.06-7.82-10.08c-0.68-0.85-0.68-0.85-1.36-1.72q-3.78-4.79-7.6-9.55-0.82-1.02-1.66-2.07-1.61-2-3.21-3.98c-3.69-4.58-3.69-4.58-4.8-6.8q-0.01 1.7-0.01 3.46-0.06 16.17-0.17 32.35-0.07 8.31-0.09 16.63-0.03 8.03-0.1 16.06-0.02 3.06-0.02 6.11c-0.02 25.62-0.02 25.62-9.68 35.73-7.79 6.69-16.37 6.84-26.18 6.85q-1.49 0.02-3.03 0.03c-10.8 0.03-21.46-1.63-29.8-9.08-11.33-12.31-10.22-28.71-10.18-44.4q0-2.88-0.01-5.77-0.01-7.78 0-15.57 0.01-8.18 0-16.36-0.01-13.73 0.01-27.45 0.01-15.84 0-31.68-0.02-13.63-0.01-27.27 0.01-8.13 0-16.25-0.01-7.65 0.01-15.29 0-2.79-0.01-5.59c-0.06-30.06-0.06-30.06 8.65-40.1 15.5-13.9 42.88-14.37 59.87-3.35z"/>
	<path class="s1" d="m1938.61 65.13c8.44 6.61 14.69 15.68 21.11 24.19 2.14 2.81 4.34 5.59 6.53 8.37q6.4 8.13 12.75 16.31 8.3 10.68 16.67 21.31 3.42 4.35 6.83 8.69 4.19 5.34 8.39 10.68 0.72 0.9 1.45 1.84 1.35 1.71 2.69 3.42 3.83 4.88 7.64 9.78 0.93 1.2 1.89 2.43c0.71 0.92 0.71 0.92 1.44 1.85q0.01-1.68 0.01-3.42 0.06-16 0.17-32 0.07-8.22 0.09-16.44 0.03-7.95 0.1-15.9 0.02-3.02 0.02-6.04c0.02-25.45 0.02-25.45 9.77-35.55 8.03-7.2 17.87-8.1 28.34-7.9 11.34 0.81 23.78 2.83 31.88 11.5 6.17 8.02 7.77 16.33 7.77 26.25q0 1.27 0.01 2.59 0.01 4.29 0.02 8.58 0.01 3.08 0.02 6.16 0.03 10.1 0.04 20.21 0 3.48 0.01 6.96 0.03 16.37 0.04 32.73 0.02 18.87 0.08 37.75 0.04 14.59 0.05 29.19 0 8.72 0.03 17.43 0.04 8.2 0.02 16.4 0 3.01 0.02 6.01c0.16 24.7 0.16 24.7-8.74 34-9.42 8.03-21.29 10.02-33.31 9.93q-1.44 0.03-2.92 0.06c-10.44-0.01-19.19-3.59-26.89-10.69-5.88-6.3-11.42-12.73-16.64-19.59q-4.88-6.4-9.93-12.66-7.91-9.86-15.7-19.83-3.43-4.37-6.86-8.73-4.11-5.23-8.21-10.46-7.92-10.12-15.97-20.13-4.04-5.04-8-10.14-0.93-1.2-1.89-2.43-0.71-0.91-1.43-1.84-0.01 1.64-0.01 3.33-0.06 15.6-0.17 31.2-0.07 8.02-0.09 16.04-0.03 7.75-0.1 15.5-0.02 2.94-0.02 5.89c-0.03 27.62-0.03 27.62-8.84 36.61-11.58 9.34-25.6 8.32-39.77 7.43-9.68-1.29-17.27-5.77-23.81-12.87-5.49-7.84-6.34-16.18-6.34-25.58q0-1.25-0.01-2.54-0.01-4.2-0.02-8.4-0.01-3.01-0.02-6.02-0.03-9.89-0.04-19.78 0-3.41-0.01-6.82-0.03-16.03-0.04-32.06-0.02-18.47-0.08-36.94-0.04-14.29-0.05-28.59 0-8.53-0.03-17.06-0.04-8.03-0.02-16.06 0-2.94-0.02-5.87c-0.16-24.71-0.16-24.71 7.62-34.91 15.89-15.99 44.55-14.96 62.48-3.37z"/>
	<path class="s2" d="m1695 67c6.99 6.67 12.76 14.41 18.56 22.11 2.76 3.63 5.57 7.23 8.38 10.83q0.89 1.14 1.81 2.33 7.44 9.54 14.92 19.04 4.11 5.22 8.2 10.44 3.46 4.39 6.92 8.79 7.89 10 15.63 20.13c2.21 2.88 4.47 5.71 6.74 8.54q1.07 1.34 2.18 2.72 0.82 1.02 1.66 2.07 0.01-1.64 0.01-3.33 0.06-15.6 0.17-31.2 0.07-8.02 0.09-16.04 0.03-7.75 0.1-15.5 0.02-2.94 0.02-5.89c0.03-27.76 0.03-27.76 10.33-38.23 8.65-6.86 19.67-7.48 30.28-6.81 10.81 1.42 21.07 3.57 28.88 11.63 8.35 10.96 7.69 22.91 7.62 36.04q0.01 3.14 0.02 6.27 0.01 8.46-0.02 16.92-0.01 8.88 0 17.75 0 14.89-0.03 29.78-0.04 17.21-0.02 34.42 0.01 16.57-0.01 33.14-0.01 7.05 0 14.09 0.01 8.3-0.03 16.59-0.01 3.04 0 6.08 0.01 4.16-0.02 8.32c0.01 1.19 0.01 1.19 0.02 2.41-0.1 8.5-2.99 15.84-8.87 22.12-9.11 8.56-20.34 9.63-32.29 9.75q-1.4 0.05-2.84 0.09c-11.15 0.1-20.05-4.14-28.1-11.78-5.09-5.22-9.46-11-13.89-16.78q-3.41-4.4-6.86-8.78c-0.67-0.86-0.67-0.86-1.36-1.74q-5.07-6.43-10.2-12.82c-6.17-7.7-12.27-15.46-18.35-23.23q-8.42-10.76-16.98-21.42-5.22-6.53-10.38-13.11-0.76-0.97-1.54-1.97-1.88-2.38-3.75-4.77-0.01 1.66-0.01 3.37-0.06 15.8-0.17 31.6-0.07 8.12-0.09 16.25-0.03 7.84-0.1 15.69-0.02 2.99-0.02 5.97c-0.02 26.53-0.02 26.53-8.77 35.66-11.62 9.23-25.76 8.36-39.84 7.46-4.61-0.64-8.78-2.04-13-4q-1.15-0.52-2.34-1.06c-6.56-3.52-10.15-9.34-12.97-16.07-1.47-6.13-1.84-12.08-1.82-18.35q-0.01-1.24-0.01-2.51-0.01-4.14-0.01-8.28 0-2.98-0.01-5.96-0.01-8.07-0.01-16.14 0-5.05 0-10.1-0.02-17.62-0.02-35.24 0-16.41-0.02-32.82-0.02-14.1-0.02-28.2 0-8.42-0.01-16.83-0.02-7.92 0-15.84 0-2.9-0.01-5.79c-0.08-27.64-0.08-27.64 7.94-36.72 4.86-4.62 9.96-7.1 16.31-9.09q1.02-0.34 2.07-0.68c15.53-4.29 33.22-1.27 45.93 8.68z"/>
	<path class="s2" d="m2335.79 87.19c26.85 23.24 43.13 55.39 46.96 90.69q0.16 2.56 0.25 5.12 0.06 1.44 0.12 2.92c0.77 36.46-12.88 70.91-37.64 97.59-14.12 14.18-30.89 24.26-49.48 31.49q-1.53 0.59-3.1 1.21c-33.33 11.99-71.14 8.65-102.9-6.21-32.74-15.6-55.5-43-67.98-76.73-11.74-33.88-8.43-71.18 6.98-103.27 5.03-10.08 10.9-19.25 18-28 0.91-1.12 0.91-1.12 1.84-2.27 20.25-24.01 52.93-39 83.82-42.55 36.71-2.87 74.43 5.97 103.13 30.01zm-128.11 64.16c-10.21 11.93-15.49 27.23-14.47 42.89 1.47 11.59 5.82 21.44 12.79 30.76q0.6 0.88 1.22 1.79c7.15 9.55 20.21 16.36 31.78 18.21 18.04 1.68 33.22-1.75 47.69-13.11 10.9-9.91 17.17-24.46 18.62-38.99 0.61-15.25-4.65-29.36-14.31-41.02-11.15-11.77-25.38-18.2-41.55-18.91-16.36 0.15-30.32 6.79-41.77 18.38z"/>
	<path class="s3" d="m1500.44 61.94q1.26 1.01 2.56 2.06 1.44 1.11 2.93 2.25c3.05 2.56 4.87 5.25 6.8 8.77q0.49 0.89 1 1.81c4.8 8.82 9.2 17.86 13.64 26.86q2.67 5.38 5.34 10.76 0.66 1.32 1.33 2.67c3.38 6.77 6.87 13.48 10.42 20.16 3.76 7.11 7.39 14.27 10.98 21.47 0.47 0.96 0.47 0.96 0.96 1.93q6.78 13.58 13.26 27.3 4.03 8.47 8.27 16.84 0.52 1.03 1.06 2.09 0.53 1.05 1.07 2.13c6.61 13.09 13.04 26.24 19.13 39.59 0.45 0.99 0.45 0.99 0.92 2 3.31 7.23 6.43 14.52 9.28 21.94q0.38 0.97 0.77 1.97c3.45 9.19 2.64 17.1-1.02 26.05-4.36 9.23-11.96 16.68-21.56 20.33-9.64 2.64-19.09 2.51-29 2.48q-2.92 0.01-5.83 0.02-7.86 0.03-15.72 0.02-6.59-0.01-13.17 0-15.54 0.02-31.07 0.01-15.99-0.02-31.98 0.03-13.77 0.03-27.54 0.02-8.2-0.01-16.41 0.01-7.72 0.03-15.44 0-2.81-0.01-5.63 0.01c-14.1 0.07-27.63-0.74-38.79-10.52-7.23-7.36-11.05-15.88-11.63-26.19 0.23-5.16 1.37-9.52 3.25-14.29q0.4-1.04 0.81-2.11c2.84-7.27 6-14.38 9.26-21.47q0.47-1.04 0.96-2.11c7.58-16.56 15.58-32.92 23.61-49.26q4.4-8.96 8.78-17.93 16.28-33.33 32.82-66.53 1.74-3.5 3.48-7.01c21.1-42.43 21.1-42.43 38.57-48.8 11.47-3.33 23.21-1.18 33.53 4.64zm-22.44 119.06q-4.7 9.54-9.39 19.09-1.59 3.24-3.18 6.47-2.31 4.7-4.62 9.4-0.69 1.4-1.4 2.83c-4.39 8.98-8.34 18.05-12.41 27.21 20.79 0 41.58 0 63 0-1.27-3.82-2.4-7.05-4.14-10.59-0.62-1.28-0.62-1.28-1.26-2.59-0.67-1.37-0.67-1.37-1.36-2.76q-0.7-1.43-1.42-2.9-2.25-4.58-4.51-9.16-1.49-3.03-2.97-6.07-7.59-15.5-15.34-30.93-0.49 0-1 0z"/>
	<path class="s3" d="m2819.13 61.88c8.61 6.36 13.33 15.01 17.99 24.43q0.97 1.92 1.95 3.85 2.5 4.95 4.97 9.92 2.24 4.48 4.51 8.94 4.85 9.61 9.66 19.23 1.42 2.84 2.84 5.67 5 10 10 20 4.58 9.16 9.18 18.32 4.01 8.01 8.01 16.02 2.37 4.72 4.73 9.44c41.26 82.27 41.26 82.27 36.03 99.3-3.81 10.12-9.46 17.17-19 22.38-6.97 3.04-14.02 3.92-21.56 3.88q-1.22 0.01-2.47 0.01-4.04 0.01-8.08 0-2.92 0.01-5.84 0.02-7.89 0.02-15.78 0.01-6.61 0-13.21 0.01-15.58 0.02-31.16 0.01-16.04-0.01-32.09 0.02-13.8 0.03-27.6 0.02-8.24 0-16.47 0.02-7.74 0.02-15.49 0-2.83-0.01-5.66 0c-14.52 0.06-28.58-0.63-39.78-11-7.55-7.97-11.1-17.9-10.99-28.77 0.27-3.92 1.36-7.22 2.8-10.86q0.45-1.18 0.92-2.39c4.91-12.46 10.84-24.51 16.61-36.59q1.87-3.9 3.72-7.81c16.13-33.85 32.76-67.46 49.48-101.01q3.01-6.03 5.99-12.07 3.7-7.47 7.43-14.93 1.39-2.79 2.77-5.58c7.59-15.38 14.29-28.19 31.07-34.61 12.2-3.88 23.39-1.59 34.52 4.12zm-23.13 120.12c-11.28 22.39-11.28 22.39-22.25 44.94-0.64 1.34-0.64 1.34-1.3 2.71-2.57 5.42-5.01 10.87-7.45 16.35 21.12 0 42.24 0 64 0-7.28-15.38-7.28-15.38-14.69-30.7q-0.71-1.45-1.44-2.94-2.22-4.53-4.43-9.05-1.53-3.12-3.06-6.24-3.69-7.54-7.38-15.07-0.99 0-2 0z"/>
	<path class="s3" d="m454.52 63.01c7.56 6.05 11.79 13.72 16.05 22.27q0.91 1.8 1.83 3.59 2.36 4.65 4.69 9.31 2.16 4.3 4.34 8.59 4.76 9.43 9.48 18.87 1.39 2.8 2.79 5.59 4.93 9.84 9.85 19.68 4.51 9.03 9.03 18.04 3.95 7.88 7.89 15.77 2.33 4.65 4.66 9.29c12.69 25.31 24.85 50.91 35.87 76.99q0.47 1.1 0.95 2.24c3.73 9.21 3.21 19.13-0.64 28.23-5.2 10.01-13 16.66-23.8 20.1-8.49 2.25-17.14 1.85-25.85 1.82q-2.92 0-5.83 0.01-7.89 0.02-15.77 0-8.27 0-16.54 0.01-13.88 0-27.77-0.02-16.02-0.02-32.05 0.01-13.79 0.02-27.57 0-8.23 0-16.45 0.01-7.73 0.01-15.46-0.02-2.83 0-5.66 0.01c-14.62 0.04-26.67-0.92-38.56-10.4-6.96-7.09-11.06-16.65-11.32-26.54 0.07-6.65 1.82-11.79 4.45-17.83q0.66-1.6 1.35-3.25c4.54-10.73 9.42-21.32 14.44-31.84 0.49-1.03 0.49-1.03 0.99-2.08 14.71-30.8 29.88-61.39 45.09-91.95q4.73-9.52 9.44-19.05 4.19-8.49 8.42-16.97 2.21-4.44 4.4-8.88 2.42-4.92 4.88-9.81 0.69-1.42 1.4-2.88c4.73-9.33 11-17.55 20.65-21.98q1.71-0.82 3.48-1.66c12.76-4.9 25.37-1.98 36.85 4.73zm-23.52 116.99q-4.21 8.61-8.42 17.22-1.43 2.91-2.85 5.82-7.77 15.85-15.43 31.76-0.64 1.34-1.31 2.72-0.59 1.23-1.19 2.49-0.52 1.08-1.06 2.2c-0.87 1.77-0.87 1.77-0.74 3.79 20.79 0 41.58 0 63 0-1.96-5.89-3.83-11.08-6.62-16.51-0.52-1.02-0.52-1.02-1.05-2.06q-1.09-2.17-2.2-4.33-2.87-5.65-5.72-11.32-0.56-1.12-1.14-2.27c-4.92-9.76-9.62-19.62-14.27-29.51q-0.49 0-1 0z"/>
	<path class="s0" d="m2452.63 64.09c5.69 4.59 8.58 10.78 11.86 17.18q0.78 1.51 1.58 3.07c5.87 11.39 11.5 22.89 17.12 34.41q1.64 3.35 3.28 6.71 4.03 8.25 8.05 16.5 2.07 4.26 4.15 8.52 3.45 7.07 6.89 14.15 0.49 1 1 2.04c4.9 10.07 9.69 20.19 14.44 30.33 2.11-2.69 3.79-5.34 5.31-8.39q0.65-1.31 1.33-2.66 0.67-1.36 1.36-2.76 0.63-1.25 1.27-2.54c3.35-6.74 6.59-13.53 9.82-20.31 5.53-11.59 11.16-23.13 16.82-34.66q2.39-4.87 4.77-9.74 3.13-6.38 6.27-12.75 3.04-6.17 6.03-12.36 1.43-2.93 2.86-5.86 0.63-1.3 1.27-2.65c5.6-11.4 12.71-20.03 24.95-24.42 12.18-3.33 23.03-2.43 34.19 3.79 8.74 5.62 13.46 13.13 17 22.68 2.3 11.11-0.92 19.5-5.25 29.63q-0.45 1.05-0.91 2.13c-2.14 4.94-4.38 9.84-6.64 14.73q-1.43 3.09-2.85 6.19c-13.74 29.92-28.62 59.29-43.36 88.73q-4.35 8.68-8.69 17.38-4.24 8.5-8.5 17.01-2.52 5.02-5.03 10.05c-22.48 45.05-22.48 45.05-38.02 50.78-11.12 3.27-21.27 2.12-31.92-2.16-8.49-5.07-13.55-11.31-17.78-20.12q-0.74-1.49-1.51-3.02-1.6-3.2-3.17-6.41-2.42-4.91-4.9-9.78-4.84-9.56-9.62-19.15-1.43-2.86-2.86-5.71-5.04-10.06-10.07-20.12-4.61-9.23-9.24-18.45-4.03-8.05-8.05-16.1-2.38-4.75-4.76-9.5c-8.18-16.3-16.04-32.71-23.65-49.28q-3-6.51-6.06-13c-15.26-32.72-15.26-32.72-9.79-48.39 4.79-10.62 12.32-17.69 23.22-21.91 13.65-4.11 25.91-1.56 37.78 6.19z"/>
	<path class="s2" d="m1321.22 62.57c7.85 6.33 11.43 14.55 12.78 24.43q0.14 4.17 0.14 8.34 0 1.23 0.01 2.5 0.01 4.14 0.01 8.27 0.01 2.97 0.02 5.94 0.01 8.06 0.02 16.12 0 5.04 0.01 10.09 0.02 15.79 0.03 31.58 0.01 18.2 0.05 36.4 0.03 14.08 0.03 28.17 0 8.4 0.03 16.8 0.02 7.92 0.01 15.83 0 2.89 0.01 5.78c0.14 29.39 0.14 29.39-9.58 40.66-8.93 7.6-18.87 8.71-30.04 8.77-1.5 0.03-1.5 0.03-3.03 0.06-9.65 0.05-19-2.17-26.35-8.77-7.32-7.8-9.5-17.65-9.48-28.1 0-1.92 0-1.92 0-3.88q0-2.07 0.01-4.15 0.01-2.14 0.01-4.27 0-5.61 0.02-11.22 0.02-5.73 0.02-11.46 0.02-11.23 0.05-22.46-0.84 0.01-1.7 0.02-8.86 0.1-17.72 0.14-3.3 0.03-6.59 0.07c-31.06 0.36-31.06 0.36-41.99-9.23-8.73-9.08-10.3-20.45-10.14-32.62 0.46-10.95 3.23-19.99 11.33-27.75 9.8-7.64 22.25-7.8 34.1-7.73q1.4 0 2.85 0.01 4.46 0.01 8.92 0.03 3.05 0.01 6.09 0.01 7.43 0.02 14.85 0.05c-0.01-1.12-0.01-1.12-0.02-2.26q-0.09-10.63-0.14-21.27-0.02-5.46-0.07-10.92-0.04-5.3-0.05-10.59-0.02-2.96-0.06-5.92c0-14.35 1.84-26.37 12.09-36.85 14.88-10.02 38.49-10.95 53.47-0.62z"/>
	<path class="s2" d="m1168 66c6.86 6.3 8.36 17.12 9 26 0.14 5.01 0.14 10.02 0.13 15.03q0 2.26 0 4.52 0.01 6.13 0 12.26 0 6.48 0.01 12.97 0 10.95-0.01 21.9-0.01 11.1 0 22.21c0.02 23.7-0.01 47.41-0.13 71.11-0.01 1.94-0.01 1.94-0.02 3.92q-0.05 9.68-0.2 19.35-0.04 2.61-0.06 5.23c-0.1 11.69-1.27 22.34-8.89 31.71-8.57 8.37-18.72 10.14-30.2 10.1q-1.32 0.03-2.68 0.05c-9.32 0.01-18.74-2.14-25.95-8.36-10.03-11.48-9.44-24.83-9.4-39.21q-0.01-3.07-0.02-6.14-0.03-8.32-0.02-16.64 0.01-6.96 0-13.92-0.02-16.43-0.01-32.85 0.02-16.91-0.03-33.83-0.03-14.55-0.02-29.1 0.01-8.67-0.01-17.35-0.03-8.16 0-16.33 0.01-2.98-0.01-5.97c-0.12-25.2-0.12-25.2 8.14-35.66 15.63-15.68 43.73-14.26 60.38-1z"/>
	<path class="s4" d="m2593 63c0 3 0 3-1.53 4.82q-0.97 0.92-1.97 1.87-0.97 0.93-1.97 1.88-0.75 0.71-1.53 1.43-0.99-0.49-2-1c2.79-3.49 5.25-6.5 9-9z"/>
</svg>